<?xml version="1.0" encoding="UTF-8" standalone="no"?>
<svg
   version="1.1"
   style="display: block;"
   viewBox="0 0 2048 2048"
   width="1024"
   height="1024"
   preserveAspectRatio="none"
   id="svg17"
   sodipodi:docname="knife.svg"
   inkscape:version="1.4.2 (ebf0e940d0, 2025-05-08)"
   xmlns:inkscape="http://www.inkscape.org/namespaces/inkscape"
   xmlns:sodipodi="http://sodipodi.sourceforge.net/DTD/sodipodi-0.dtd"
   xmlns="http://www.w3.org/2000/svg"
   xmlns:svg="http://www.w3.org/2000/svg">
  <defs
     id="defs17" />
  <sodipodi:namedview
     id="namedview17"
     pagecolor="#505050"
     bordercolor="#eeeeee"
     borderopacity="1"
     inkscape:showpageshadow="0"
     inkscape:pageopacity="0"
     inkscape:pagecheckerboard="0"
     inkscape:deskcolor="#505050"
     showgrid="false"
     inkscape:zoom="0.2927864"
     inkscape:cx="792.38653"
     inkscape:cy="191.26571"
     inkscape:window-width="1920"
     inkscape:window-height="1080"
     inkscape:window-x="0"
     inkscape:window-y="0"
     inkscape:window-maximized="1"
     inkscape:current-layer="svg17" />
  <path
     fill="#ffffff"
     d="M 0,0 H 2048 V 2048 H 0 Z"
     id="path1"
     style="display:none" />
  <path
     transform="translate(0,0)"
     fill="rgb(136,135,135)"
     d="M 1629.23 365.919 L 1631.98 365.169 L 1633.5 366.514 C 1634.93 374.053 1636.93 379.86 1638.05 387.591 C 1650.03 470.536 1648.19 554.052 1622.03 634.268 C 1617.5 648.143 1607.67 676.499 1600.47 688.232 C 1556.94 779.284 1491.17 835.587 1414.28 896.913 C 1384.38 920.77 1354.62 944.787 1324.98 968.962 L 1226.87 1048.38 C 1212.45 1060.16 1186.47 1082.92 1172.24 1092.65 L 1169.25 1093.2 C 1168.46 1094.53 1168.04 1095.1 1167.48 1096.54 C 1155.94 1106.04 1072.84 1172.75 1070.05 1177.23 C 1066.41 1174.19 1050.52 1153.83 1046.9 1149.18 C 1031.91 1130.07 1017.08 1110.82 1002.42 1091.45 C 987.057 1072.63 971.871 1053.66 956.864 1034.55 C 943.432 1015.77 908.895 979.002 899.588 961.679 C 906.937 954.792 919.394 945.208 927.549 938.553 L 980.148 895.625 L 1141.2 764.127 L 1629.23 365.919 z"
     id="path2" />
  <path
     transform="translate(0,0)"
     fill="rgb(114,114,114)"
     d="M 1629.23 365.919 L 1631.98 365.169 L 1633.5 366.514 C 1634.93 374.053 1636.93 379.86 1638.05 387.591 C 1650.03 470.536 1648.19 554.052 1622.03 634.268 C 1617.5 648.143 1607.67 676.499 1600.47 688.232 C 1556.94 779.284 1491.17 835.587 1414.28 896.913 C 1384.38 920.77 1354.62 944.787 1324.98 968.962 L 1226.87 1048.38 C 1212.45 1060.16 1186.47 1082.92 1172.24 1092.65 L 1169.25 1093.2 C 1168.46 1094.53 1168.04 1095.1 1167.48 1096.54 C 1155.94 1106.04 1072.84 1172.75 1070.05 1177.23 C 1066.41 1174.19 1050.52 1153.83 1046.9 1149.18 C 1031.91 1130.07 1017.08 1110.82 1002.42 1091.45 C 1018.37 1080.12 1040.63 1061.02 1055.98 1048.23 C 1076.49 1031.26 1097.1 1014.42 1117.82 997.707 C 1140.76 979.185 1163.6 960.547 1186.35 941.792 C 1194.73 934.854 1211.95 921.301 1218.55 914.022 L 1217.83 912.685 C 1233.99 913.162 1248.39 902.534 1252.7 886.948 L 1256.12 884.349 C 1301.14 849.884 1344.81 811.831 1388.92 776.059 C 1405.63 762.506 1423.53 747.872 1439.18 733.236 C 1493.07 682.173 1533.81 618.835 1557.93 548.622 C 1571 511.627 1576.41 478.672 1583.85 440.59 C 1587.86 420.056 1627.05 382.353 1629.23 365.919 z"
     id="path3" />
  <path
     transform="translate(0,0)"
     fill="rgb(238,1,0)"
     d="M 1496.8 772.661 C 1530.08 766.924 1539.54 756.26 1558.32 729.571 C 1568.13 715.643 1584.98 695.781 1600.47 688.232 C 1556.94 779.284 1491.17 835.587 1414.28 896.913 C 1384.38 920.77 1354.62 944.787 1324.98 968.962 L 1226.87 1048.38 C 1212.45 1060.16 1186.47 1082.92 1172.24 1092.65 C 1168 1036.49 1210.01 1032.63 1247.11 1009.2 C 1275.37 991.353 1319.37 957.239 1320.23 921.422 C 1317.16 904.899 1301.55 885.366 1311.09 868.526 C 1334.49 829.623 1373.26 862.51 1408.24 847.009 C 1438.07 833.796 1437.53 817.179 1458.05 795.024 C 1469.51 782.646 1480.98 777.569 1496.8 772.661 z"
     id="path4" />
  <path
     transform="translate(0,0)"
     fill="rgb(219,218,218)"
     d="M 1633.5 366.514 C 1634.93 374.053 1636.93 379.86 1638.05 387.591 C 1650.03 470.536 1648.19 554.052 1622.03 634.268 C 1617.5 648.143 1607.67 676.499 1600.47 688.232 C 1584.98 695.781 1568.13 715.643 1558.32 729.571 C 1539.54 756.26 1530.08 766.924 1496.8 772.661 C 1501.33 766.77 1508.18 759.532 1513.29 753.82 C 1560.87 700.66 1592.09 634.211 1610.26 565.616 C 1627.49 500.577 1630.39 433.417 1633.5 366.514 z"
     id="path5" />
  <path
     transform="translate(0,0)"
     fill="rgb(219,218,218)"
     d="M 1320.23 921.422 C 1319.37 957.239 1275.37 991.353 1247.11 1009.2 C 1210.01 1032.63 1168 1036.49 1172.24 1092.65 L 1169.25 1093.2 C 1168.46 1094.53 1168.04 1095.1 1167.48 1096.54 C 1163.97 1083.06 1160.93 1066.92 1157.98 1053.14 C 1171.07 1041.89 1187.08 1029.79 1200.66 1018.69 L 1320.23 921.422 z"
     id="path6" />
  <path
     transform="translate(0,0)"
     fill="rgb(238,1,0)"
     d="M 1179.15 959.504 C 1189.06 957.046 1199.1 963.024 1201.66 972.907 C 1204.22 982.79 1198.34 992.892 1188.49 995.554 C 1182.02 997.3 1175.11 995.439 1170.4 990.68 C 1165.69 985.92 1163.89 978.996 1165.7 972.547 C 1167.51 966.098 1172.65 961.117 1179.15 959.504 z"
     id="path7" />
  <path
     transform="translate(0,0)"
     fill="rgb(238,1,0)"
     d="M 1096.54 1082.51 C 1099.71 1081.18 1103.36 1081.67 1106.07 1083.79 C 1108.78 1085.92 1110.12 1089.34 1109.59 1092.74 C 1109.05 1096.14 1106.72 1098.99 1103.48 1100.17 C 1098.64 1101.95 1093.27 1099.54 1091.38 1094.74 C 1089.49 1089.94 1091.78 1084.51 1096.54 1082.51 z"
     id="path8" />
  <path
     transform="translate(0,0)"
     fill="rgb(238,1,0)"
     d="M 1217.83 912.685 C 1202.87 912.243 1189.84 902.365 1185.37 888.082 C 1180.9 873.799 1185.98 858.254 1198.02 849.366 C 1210.06 840.478 1226.41 840.202 1238.75 848.68 C 1251.08 857.157 1256.68 872.522 1252.7 886.948 C 1248.39 902.534 1233.99 913.162 1217.83 912.685 z"
     id="path9" />
  <path
     transform="translate(0,0)"
     fill="rgb(238,1,0)"
     d="M 1129.31 874.603 C 1133.47 873.088 1138.12 873.926 1141.5 876.798 C 1144.87 879.669 1146.44 884.13 1145.61 888.48 C 1144.77 892.83 1141.67 896.398 1137.48 897.822 C 1131.09 899.992 1124.14 896.616 1121.91 890.252 C 1119.67 883.889 1122.97 876.909 1129.31 874.603 z"
     id="path10" />
  <path
     transform="translate(0,0)"
     fill="rgb(238,1,0)"
     d="M 1355.68 741.374 C 1358.64 740.475 1361.86 741.236 1364.1 743.367 C 1366.35 745.498 1367.28 748.671 1366.53 751.676 C 1365.79 754.681 1363.49 757.055 1360.51 757.894 C 1355.97 759.173 1351.24 756.556 1349.92 752.026 C 1348.59 747.496 1351.16 742.744 1355.68 741.374 z"
     id="path11" />
  <path
     transform="translate(0,0)"
     fill="rgb(0,0,0)"
     d="M 826.793 1021.18 C 843.721 1041.56 868.124 1070.55 883.799 1091.67 C 888.06 1089.33 909.25 1071.62 912.749 1067.83 L 914.581 1069.55 C 932.437 1093.18 951.352 1115.32 969.252 1138.71 C 959.239 1146.11 949.33 1154.44 939.646 1162.31 L 697.544 1359.44 L 630.693 1413.84 C 617.653 1424.4 602.514 1436.03 590.223 1447.01 C 589.788 1457.23 589.128 1468.26 588.936 1478.43 L 541.865 1516.2 C 520.63 1513.71 490.581 1512.49 470.809 1508.69 L 431.989 1459.48 C 421.95 1447.18 412.015 1434.81 402.186 1422.34 C 405.663 1402.04 408.281 1380.38 411.191 1359.85 C 424.303 1347.98 440.342 1335.88 454.264 1324.58 L 530.1 1262.82 C 628.024 1183.13 730.521 1102.21 826.793 1021.18 z"
     id="path12" />
  <path
     transform="translate(0,0)"
     fill="rgb(54,54,54)"
     d="M 826.793 1021.18 C 843.721 1041.56 868.124 1070.55 883.799 1091.67 L 884.106 1092.57 C 847.335 1123.04 808.471 1153.69 771.269 1183.76 L 561.138 1354.34 C 535.008 1375.6 508.736 1396.69 482.322 1417.61 C 467.445 1429.49 445.415 1446.51 431.989 1459.48 C 421.95 1447.18 412.015 1434.81 402.186 1422.34 C 405.663 1402.04 408.281 1380.38 411.191 1359.85 C 424.303 1347.98 440.342 1335.88 454.264 1324.58 L 530.1 1262.82 C 628.024 1183.13 730.521 1102.21 826.793 1021.18 z"
     id="path13" />
  <path
     transform="translate(0,0)"
     fill="rgb(136,135,135)"
     d="M 912.749 1067.83 L 914.581 1069.55 C 932.437 1093.18 951.352 1115.32 969.252 1138.71 C 959.239 1146.11 949.33 1154.44 939.646 1162.31 C 936.536 1157.67 926.267 1146.01 922.252 1141.03 C 909.27 1125.09 896.553 1108.94 884.106 1092.57 L 883.799 1091.67 C 888.06 1089.33 909.25 1071.62 912.749 1067.83 z"
     id="path14" />
  <path
     transform="translate(0,0)"
     fill="rgb(54,54,54)"
     d="M 846.523 895.314 C 861.265 916.449 882.751 941.743 899.588 961.679 C 908.895 979.002 943.432 1015.77 956.864 1034.55 C 943.791 1047.45 929.185 1058.45 914.581 1069.55 L 912.749 1067.83 C 909.25 1071.62 888.06 1089.33 883.799 1091.67 C 868.124 1070.55 843.721 1041.56 826.793 1021.18 C 836.159 1012.43 846.303 1005.24 855.291 996.192 C 838.979 975.357 818.495 951.604 803.41 930.827 C 815.036 919.912 833.788 905.391 846.523 895.314 z"
     id="path15" />
  <path
     transform="translate(0,0)"
     fill="rgb(219,218,218)"
     d="M 855.291 996.192 C 874.379 1020.06 893.991 1043.79 912.749 1067.83 C 909.25 1071.62 888.06 1089.33 883.799 1091.67 C 868.124 1070.55 843.721 1041.56 826.793 1021.18 C 836.159 1012.43 846.303 1005.24 855.291 996.192 z"
     id="path16" />
  <path
     transform="translate(0,0)"
     fill="rgb(0,0,0)"
     d="M 956.864 1034.55 C 971.871 1053.66 987.057 1072.63 1002.42 1091.45 C 1017.08 1110.82 1031.91 1130.07 1046.9 1149.18 C 1050.52 1153.83 1066.41 1174.19 1070.05 1177.23 C 1079.66 1188.31 1092.37 1204.61 1101.09 1216.24 C 1086.74 1227.71 1072.59 1239.42 1058.65 1251.39 C 1038.08 1225.1 1017.34 1198.94 996.439 1172.92 C 987.606 1161.84 978.388 1149.3 969.252 1138.71 C 951.352 1115.32 932.437 1093.18 914.581 1069.55 C 929.185 1058.45 943.791 1047.45 956.864 1034.55 z"
     id="path17" />
</svg>
